<?xml version="1.0" encoding="utf-8"?>
<!-- Generator: Adobe Illustrator 16.0.0, SVG Export Plug-In . SVG Version: 6.00 Build 0)  -->
<!DOCTYPE svg PUBLIC "-//W3C//DTD SVG 1.1//EN" "http://www.w3.org/Graphics/SVG/1.1/DTD/svg11.dtd">
<svg version="1.1" xmlns="http://www.w3.org/2000/svg" xmlns:xlink="http://www.w3.org/1999/xlink" x="0px" y="0px" width="60px"
	 height="60px" viewBox="0 0 60 60" enable-background="new 0 0 60 60" xml:space="preserve">
<g id="Layer_1">
</g>
<g id="txt">
	<linearGradient id="SVGID_2_" gradientUnits="userSpaceOnUse" x1="30" y1="58.4277" x2="30" y2="6.3544">
		<stop  offset="0" style="stop-color:#477256"/>
		<stop  offset="1" style="stop-color:#135D6B"/>
	</linearGradient>
	<rect fill="url(#SVGID_2_)" width="60" height="60"/>
	<g>
		<path fill="#FFFFFF" d="M47.678,49.463c0,1.09-0.877,1.974-1.959,1.974H14.283c-1.084,0-1.961-0.884-1.961-1.974v-27.47
			c0-1.09,0.877-1.974,1.961-1.974h31.436c1.082,0,1.959,0.884,1.959,1.974V49.463z"/>
		<g>
			<g>
				<path fill="none" stroke="#293F54" stroke-width="0.5669" stroke-miterlimit="10" d="M45.875,48.728c0,0.552-0.447,1-1,1H15.313
					c-0.551,0-1-0.448-1-1v-26c0-0.553,0.449-1,1-1h29.563c0.553,0,1,0.447,1,1V48.728z"/>
				
					<line fill="none" stroke="#293F54" stroke-width="0.5669" stroke-miterlimit="10" x1="14.125" y1="28.666" x2="45.813" y2="28.666"/>
				<circle fill="#00B1CC" cx="16.875" cy="25.291" r="0.813"/>
				<circle fill="#00B1CC" cx="20.875" cy="25.291" r="0.813"/>
				<circle fill="#00B1CC" cx="24.875" cy="25.291" r="0.813"/>
				<circle fill="#293F54" cx="30.25" cy="25.291" r="0.5"/>
				<circle fill="#293F54" cx="32.775" cy="25.291" r="0.5"/>
				<circle fill="#293F54" cx="35.301" cy="25.291" r="0.5"/>
				<circle fill="#293F54" cx="37.826" cy="25.291" r="0.5"/>
				<circle fill="#293F54" cx="40.352" cy="25.291" r="0.5"/>
				<circle fill="#293F54" cx="42.875" cy="25.291" r="0.5"/>
			</g>
			<path fill="#00B1CC" d="M14.313,38.494"/>
			
				<path fill="none" stroke="#FFC500" stroke-width="0.3844" stroke-linecap="round" stroke-linejoin="round" stroke-miterlimit="10" d="
				M23.771,41.304c0,0.553-0.447,1-1,1h-4.387c-0.553,0-1-0.447-1-1v-4.387c0-0.553,0.447-1,1-1h4.387c0.553,0,1,0.447,1,1V41.304z"
				/>
			
				<path fill="none" stroke="#FFC500" stroke-width="0.3844" stroke-linecap="round" stroke-linejoin="round" stroke-miterlimit="10" d="
				M33.162,41.304c0,0.553-0.447,1-1,1h-4.387c-0.553,0-1-0.447-1-1v-4.387c0-0.553,0.447-1,1-1h4.387c0.553,0,1,0.447,1,1V41.304z"
				/>
			
				<path fill="none" stroke="#FFC500" stroke-width="0.3844" stroke-linecap="round" stroke-linejoin="round" stroke-miterlimit="10" d="
				M42.553,41.304c0,0.553-0.447,1-1,1h-4.387c-0.553,0-1-0.447-1-1v-4.387c0-0.553,0.447-1,1-1h4.387c0.553,0,1,0.447,1,1V41.304z"
				/>
			<polygon fill="#FFC500" points="20.75,37.125 21.395,38.432 22.836,38.642 21.793,39.66 22.039,41.096 20.75,40.418 
				19.459,41.096 19.705,39.66 18.662,38.642 20.105,38.432 			"/>
			<polygon fill="#FFC500" points="39.359,36.764 39.809,38.027 41.02,37.452 40.443,38.662 41.707,39.111 40.443,39.56 
				41.02,40.77 39.809,40.195 39.359,41.458 38.91,40.195 37.701,40.77 38.275,39.56 37.014,39.111 38.275,38.662 37.701,37.452 
				38.91,38.027 			"/>
			<path fill="#FFC500" d="M28.193,40.833c0.045-0.135,1.68-3.444,1.68-3.444l1.871,3.444H28.193z"/>
			<g>
				
					<polyline fill="#FFFFFF" stroke="#293F54" stroke-width="0.4544" stroke-linecap="round" stroke-linejoin="round" stroke-miterlimit="10" points="
					33.52,44.016 34.729,42.808 29.572,41.427 30.953,46.583 32.162,45.375 				"/>
				<g>
					
						<line fill="none" stroke="#293F54" stroke-width="0.4544" stroke-linecap="round" stroke-linejoin="round" stroke-miterlimit="10" x1="33.158" y1="45.015" x2="34.666" y2="46.523"/>
				</g>
			</g>
			<path fill="#00B1CC" d="M25.54,35.125c0-0.681-0.481-1.146-1.021-1.15c-0.508-0.006-0.771,0.364-0.905,0.636
				c-0.136-0.271-0.398-0.642-0.905-0.636c-0.541,0.005-1.021,0.47-1.021,1.15c0,1.481,1.725,2.262,1.908,2.343l0.001,0.015
				c0,0,0.015-0.008,0.018-0.008s0.017,0.008,0.017,0.008l0.001-0.015C23.816,37.386,25.54,36.606,25.54,35.125z"/>
			<path fill="#00B1CC" d="M35.089,35.125c0-0.681-0.48-1.146-1.021-1.15c-0.508-0.006-0.771,0.364-0.905,0.636
				c-0.136-0.271-0.397-0.642-0.905-0.636c-0.54,0.005-1.021,0.47-1.021,1.15c0,1.481,1.725,2.262,1.908,2.343l0.001,0.015
				c0,0,0.015-0.008,0.018-0.008s0.017,0.008,0.017,0.008l0.002-0.015C33.365,37.386,35.089,36.606,35.089,35.125z"/>
		</g>
	</g>
	<path fill="#98C020" d="M29.011,7.008c0.309,0,0.575-0.108,0.8-0.324c0.199-0.192,0.304-0.392,0.313-0.6
		c0.009-0.141-0.046-0.281-0.163-0.417c-0.116-0.138-0.263-0.207-0.437-0.207c-0.3,0-0.573,0.1-0.819,0.3
		c-0.244,0.199-0.372,0.408-0.38,0.625C28.308,6.8,28.536,7.008,29.011,7.008z"/>
	<path fill="#FFFFFF" d="M37.515,11.228l-0.14-0.185c-0.095,0.108-0.214,0.225-0.361,0.348c-0.179,0.147-0.302,0.222-0.37,0.222
		c-0.094,0-0.154-0.02-0.178-0.06c-0.024-0.039-0.035-0.11-0.029-0.214c0-0.039,0.03-0.191,0.092-0.455
		c0.062-0.263,0.095-0.464,0.101-0.602c0.004-0.202-0.033-0.358-0.111-0.466C36.414,9.684,36.241,9.627,36,9.646
		c-0.281,0.025-0.574,0.136-0.88,0.333c-0.128,0.084-0.251,0.182-0.37,0.295c0.213-0.889,0.321-1.497,0.326-1.824
		c0.005-0.484-0.194-0.733-0.599-0.749c-0.458-0.015-0.794,0.244-1.006,0.776c0.089-0.04,0.174-0.059,0.251-0.059
		c0.064,0,0.131,0.04,0.2,0.118c0.103,0.124,0.146,0.313,0.125,0.57c-0.014,0.188-0.059,0.59-0.134,1.207
		c-0.016,0.154-0.032,0.296-0.046,0.428c-0.029,0.021-0.057,0.042-0.088,0.062c-0.374,0.25-0.716,0.375-1.022,0.375
		c-0.408,0-0.608-0.154-0.6-0.461c0.017-0.534,0.107-1.233,0.274-2.099h0.887c0.067,0,0.101-0.029,0.101-0.087l0.11-0.537
		c0.018-0.083-0.019-0.125-0.11-0.125h-0.837c0.199-0.949,0.337-1.607,0.411-1.974c0.017-0.066-0.033-0.099-0.148-0.099
		c-0.219,0-0.501,0.091-0.85,0.274c-0.375,0.2-0.58,0.4-0.612,0.599l-0.2,1.199h-0.513c-0.066,0-0.104,0.029-0.112,0.087
		l-0.112,0.537c-0.017,0.083,0.021,0.125,0.112,0.125h0.514c-0.126,0.723-0.222,1.32-0.285,1.796
		c-0.124,0.125-0.266,0.254-0.428,0.39c-0.299,0.25-0.507,0.375-0.623,0.375c-0.268,0-0.396-0.179-0.389-0.537
		c0.125-0.782,0.242-1.427,0.35-1.935c0.033-0.3-0.015-0.543-0.144-0.731c-0.129-0.187-0.33-0.269-0.604-0.244
		c-0.176,0.017-0.441,0.184-0.8,0.5c-0.266,0.241-0.533,0.482-0.8,0.724l0.288,0.337c0.232-0.175,0.374-0.263,0.424-0.263
		c0.15,0,0.225,0.108,0.225,0.325c0,0.042-0.081,0.35-0.243,0.924c-0.041,0.146-0.077,0.282-0.108,0.409
		c-0.375,0.259-0.856,0.531-1.446,0.815c0.301-0.991,0.466-1.915,0.499-2.772c0.026-0.691-0.282-1.045-0.923-1.062
		c-0.774-0.024-1.282,0.408-1.523,1.299c0.135-0.058,0.274-0.087,0.418-0.087c0.118,0,0.215,0.047,0.292,0.143
		c0.075,0.096,0.109,0.207,0.102,0.331c-0.009,0.325-0.175,0.672-0.497,1.043c-0.323,0.371-0.61,0.556-0.862,0.556
		c-0.176,0-0.261-0.15-0.252-0.45c0.009-0.158,0.063-0.479,0.162-0.961c0.091-0.458,0.137-0.766,0.137-0.924
		c0-0.274-0.07-0.497-0.211-0.668c-0.142-0.17-0.347-0.244-0.612-0.219c-0.184,0.017-0.454,0.184-0.812,0.5
		c-0.267,0.241-0.532,0.482-0.8,0.724l0.287,0.337c0.233-0.175,0.376-0.263,0.425-0.263c0.158,0,0.233,0.108,0.225,0.325
		c0,0.017-0.074,0.279-0.225,0.787c-0.149,0.508-0.228,0.886-0.236,1.136c-0.017,0.342,0.046,0.604,0.188,0.787
		c0.174,0.225,0.467,0.32,0.876,0.287c0.485-0.033,0.97-0.212,1.455-0.537c0.201-0.133,0.393-0.287,0.576-0.462
		c-0.066,0.333-0.146,0.616-0.236,0.85c-0.9,0.408-1.549,0.757-1.948,1.049c-0.566,0.407-0.87,0.845-0.911,1.311
		c-0.076,0.808,0.332,1.212,1.223,1.212c0.6,0,1.179-0.366,1.736-1.1c0.475-0.624,0.887-1.457,1.236-2.497
		c0.605-0.3,1.116-0.594,1.535-0.882c-0.014,0.097-0.022,0.183-0.024,0.258c-0.009,0.266,0.057,0.482,0.193,0.649
		c0.138,0.167,0.335,0.25,0.594,0.25c0.557,0,1.116-0.242,1.674-0.724c0.162-0.143,0.31-0.292,0.444-0.449
		c-0.007,0.108-0.01,0.2-0.009,0.274c0.009,0.6,0.358,0.899,1.05,0.899c0.565,0,1.174-0.242,1.823-0.724
		c0.089-0.065,0.17-0.13,0.248-0.195c0,0.003,0,0.007,0,0.01c-0.01,0.237,0.045,0.425,0.162,0.563
		c0.148,0.167,0.389,0.247,0.725,0.237c-0.044-0.104-0.062-0.296-0.051-0.577c0.009-0.32,0.121-0.624,0.334-0.91
		c0.193-0.261,0.373-0.392,0.537-0.392c0.108,0,0.158,0.091,0.148,0.273c-0.006,0.118-0.034,0.29-0.086,0.514
		c-0.051,0.224-0.079,0.417-0.085,0.58c-0.005,0.158,0.034,0.286,0.115,0.384c0.081,0.099,0.197,0.148,0.351,0.148
		c0.33,0,0.66-0.143,0.991-0.428C37.188,11.726,37.377,11.489,37.515,11.228z M23.642,14.039c-0.134,0-0.195-0.059-0.187-0.175
		c0.016-0.217,0.39-0.504,1.122-0.862C24.195,13.693,23.884,14.039,23.642,14.039z"/>
</g>
</svg>
